<!DOCTYPE svg PUBLIC "-//W3C//DTD SVG 1.1//EN" "http://www.w3.org/Graphics/SVG/1.1/DTD/svg11.dtd">
<!-- Uploaded to: SVG Repo, www.svgrepo.com, Transformed by: SVG Repo Mixer Tools -->
<svg fill="#000000" height="800px" width="800px" version="1.1" id="Capa_1" xmlns="http://www.w3.org/2000/svg" xmlns:xlink="http://www.w3.org/1999/xlink" viewBox="0 0 490 490" xml:space="preserve">
<g id="SVGRepo_bgCarrier" stroke-width="0"/>
<g id="SVGRepo_tracerCarrier" stroke-linecap="round" stroke-linejoin="round"/>
<g id="SVGRepo_iconCarrier"> <path id="XMLID_1014_" d="M475,355h-15V200c0-8.284-6.716-15-15-15h-85V30c0-8.284-6.716-15-15-15H145c-8.284,0-15,6.716-15,15v155 H45c-8.284,0-15,6.716-15,15v155H15c-8.284,0-15,6.716-15,15v90c0,8.284,6.716,15,15,15h60c8.284,0,15-6.716,15-15v-15h110v15 c0,8.284,6.716,15,15,15h60c8.284,0,15-6.716,15-15v-15h110v15c0,8.284,6.716,15,15,15h60c8.284,0,15-6.716,15-15v-90 C490,361.716,483.284,355,475,355z M430,215v140H260V215H430z M160,45h170v140H160V45z M60,215h170v140H60V215z M460,445h-30v-15 c0-8.284-6.716-15-15-15H275c-8.284,0-15,6.716-15,15v15h-30v-15c0-8.284-6.716-15-15-15H75c-8.284,0-15,6.716-15,15v15H30v-60h430 V445z"/> </g>
</svg>